# xmcd
#
# Track frame offsets: 
#        150
#        16395
#        36432
#        55890
#        76167
#        101150
#        120650
#        140835
#        160512
#        180422
#        199730
#        222647
#        246272
#
# Disc length: 3558 seconds
#
# Revision: 1
# Processed by: cddbd v1.4PL0 Copyright (c) Steve Scherf et al.
# Submitted via: ExactAudioCopy v0.90b4
#
DISCID=b70de40d
DTITLE=Toni Braxton - Secrets
DYEAR=1996
DGENRE=R&B
TTITLE0=Come On Over Here
TTITLE1=You're Makin' Me High
TTITLE2=There's No Me Without You
TTITLE3=Un-Break My Heart
TTITLE4=Talking In His Sleep
TTITLE5=How Could An Angel Break My Heart
TTITLE6=Find Me A Man
TTITLE7=Let It Flow
TTITLE8=Why Should I Care
TTITLE9=I Don't Want To
TTITLE10=I Love Me Some Him
TTITLE11=In The Late Of Night/Toni's Secrets
TTITLE12=Un-Break My Heart (Spanish Version)
EXTD=
EXTT0=
EXTT1=
EXTT2=
EXTT3=
EXTT4=
EXTT5=
EXTT6=
EXTT7=
EXTT8=
EXTT9=
EXTT10=
EXTT11=
EXTT12=
PLAYORDER=
